/* XPM */
static char * bottom_right_inactive_xpm[] = {
"18 18 5 1",
" 	c None",
".	c #D9D9D9",
"+	c #C2C2C2",
"@	c #9C9C9C",
"#	c #000000",
"             ..+@#",
"             ..+@#",
"             ..+@#",
"             ..+@#",
"             ..+@#",
"             ..+@#",
"             ..+@#",
"             ..+@#",
"             ..+@#",
"             ..+@#",
"             ..+@#",
"             ..+@#",
"             ..+@#",
"...............+@#",
"..............++# ",
"++++++++++++++@@# ",
"@@@@@@@@@@@@@@##  ",
"##############    "};
