/* XPM */
static char * close_pressed_xpm[] = {
"15 17 40 1",
" 	c None",
".	c #FFFFFF",
"+	c #D4D0D4",
"@	c #A1A2A1",
"#	c #818281",
"$	c #777577",
"%	c #A19EA1",
"&	c #CCCCCC",
"*	c #F6F6F6",
"=	c #ACA9AC",
"-	c #898A89",
";	c #ADADAD",
">	c #B9B5B9",
",	c #9B989B",
"'	c #B2B2B2",
")	c #ADAAAD",
"!	c #898789",
"~	c #9B9B9B",
"{	c #A7A7A7",
"]	c #777877",
"^	c #A7A4A7",
"/	c #817F81",
"(	c #B2B0B2",
"_	c #FFFAFF",
":	c #717271",
"<	c #A1A1A1",
"[	c #959595",
"}	c #7D7B7D",
"|	c #9A9B9A",
"1	c #F6F2F6",
"2	c #C4C5C4",
"3	c #838483",
"4	c #A5A2A5",
"5	c #8F908F",
"6	c #EEEEEE",
"7	c #E6E6E6",
"8	c #959395",
"9	c #EEEAEE",
"0	c #C4C1C4",
"a	c #9A989A",
"...............",
"...............",
"....+@#$#%&....",
"..*=-%;>;%-=*..",
"..=,>>>>>>>,=..",
".&-'>)>>')'>!&.",
".%~'{]^'^]{'~%.",
"./{((^]~]^(({/.",
"_$;((;,:,(((;$.",
"_/^;;<],]<;;^/_",
"*%[){}%)%}{;[|*",
"123)){))){){321",
"1145{{){{{{5411",
"667438%{<834766",
"69990a/$/a09996",
"999999997777979",
"979797997979999"};
