/* XPM */
static char * close_active_xpm[] = {
"15 17 25 1",
" 	c None",
".	c #FFFFFF",
"+	c #E6E2E6",
"@	c #C5C6C5",
"#	c #ACAEAC",
"$	c #A4A1A4",
"%	c #C5C2C5",
"&	c #DEDEDE",
"*	c #F6F6F6",
"=	c #CDCACD",
"-	c #BDBEBD",
";	c #DEDADE",
">	c #EEEEEE",
",	c #FFFAFF",
"'	c #D5D2D5",
")	c #EEEAEE",
"!	c #BDBABD",
"~	c #D5D6D5",
"{	c #E6E6E6",
"]	c #A4A5A4",
"^	c #ACAAAC",
"/	c #F6F2F6",
"(	c #9C9D9C",
"_	c #CDCECD",
":	c #B4B6B4",
"...............",
"...............",
"....+@#$#%&....",
"..*=-;>,>;-=*..",
"..=',,,,,,,'=..",
".&-*,),,*)*,!&.",
".%~*{]+*+]{*~%.",
".^{//+]~]+//{^.",
",$>//>'('///>$.",
",^+>>&]']&>>+^,",
"*%_){^;);^{>_-*",
"/~:)){))){){:~/",
"//%@{{){{{{@%//",
">>{%:=;{&=:%{>>",
">)))'!^$^!')))>",
")))))))){{{{){)",
"){){){)){){))))"};
