/* XPM */
static char * hide_pressed_xpm[] = {
"15 17 39 1",
" 	c None",
".	c #FFFFFF",
"+	c #D4D0D4",
"@	c #A1A2A1",
"#	c #818281",
"$	c #777577",
"%	c #F6F6F6",
"&	c #ACA9AC",
"*	c #898A89",
"=	c #A19EA1",
"-	c #ADADAD",
";	c #B9B5B9",
">	c #9B989B",
",	c #CCCCCC",
"'	c #898789",
")	c #B2B2B2",
"!	c #9B9B9B",
"~	c #B2B0B2",
"{	c #A7A7A7",
"]	c #817F81",
"^	c #FFFAFF",
"/	c #ADAAAD",
"(	c #717271",
"_	c #A7A4A7",
":	c #959595",
"<	c #9A9B9A",
"[	c #8F8D8F",
"}	c #F6F2F6",
"|	c #C4C5C4",
"1	c #838483",
"2	c #A5A2A5",
"3	c #8F908F",
"4	c #959395",
"5	c #EEEEEE",
"6	c #E6E6E6",
"7	c #A1A1A1",
"8	c #EEEAEE",
"9	c #C4C1C4",
"0	c #9A989A",
"...............",
"...............",
"....+@#$#@+....",
"..%&*=-;-=*&%..",
"..&>;;;;;;;>&..",
".,');;;);)))*,.",
".=!))~))))))!=.",
".#{~~)~~~)~~{].",
"^$/---~---~~-(^",
"%]_-/::::>--_]^",
"%<:/{****[/-:<%",
"}|1/////////1|%",
"}}23///{{/{42}}",
"5562147{7412655",
"85889<](]098888",
"866866868888888",
"888888886666888"};
