/* XPM */
static char * left_inactive_xpm[] = {
"5 32 5 1",
" 	c None",
".	c #000000",
"+	c #9C9C9C",
"@	c #C2C2C2",
"#	c #D9D9D9",
".+@##",
".+@##",
".+@##",
".+@##",
".+@##",
".+@##",
".+@##",
".+@##",
".+@##",
".+@##",
".+@##",
".+@##",
".+@##",
".+@##",
".+@##",
".+@##",
".+@##",
".+@##",
".+@##",
".+@##",
".+@##",
".+@##",
".+@##",
".+@##",
".+@##",
".+@##",
".+@##",
".+@##",
".+@##",
".+@##",
".+@##",
".+@##"};
