/* XPM */
static char * left_active_xpm[] = {
"5 32 5 1",
" 	c None",
".	c #000000",
"+	c #A9A9A9",
"@	c #D3D3D3",
"#	c #ECECEC",
".+@##",
".+@##",
".+@##",
".+@##",
".+@##",
".+@##",
".+@##",
".+@##",
".+@##",
".+@##",
".+@##",
".+@##",
".+@##",
".+@##",
".+@##",
".+@##",
".+@##",
".+@##",
".+@##",
".+@##",
".+@##",
".+@##",
".+@##",
".+@##",
".+@##",
".+@##",
".+@##",
".+@##",
".+@##",
".+@##",
".+@##",
".+@##"};
