/* XPM */
static char * maximize_pressed_xpm[] = {
"15 17 40 1",
" 	c None",
".	c #FFFFFF",
"+	c #D4D0D4",
"@	c #A1A2A1",
"#	c #818281",
"$	c #777577",
"%	c #F6F6F6",
"&	c #ACA9AC",
"*	c #898A89",
"=	c #A19EA1",
"-	c #ADADAD",
";	c #B9B5B9",
">	c #9B9B9B",
",	c #9B989B",
"'	c #B9B9B9",
")	c #CCCCCC",
"!	c #B2B2B2",
"~	c #ADAAAD",
"{	c #898789",
"]	c #B2B0B2",
"^	c #838183",
"/	c #A7A7A7",
"(	c #7D7E7D",
"_	c #838483",
":	c #FFFAFF",
"<	c #A7A4A7",
"[	c #A1A1A1",
"}	c #817F81",
"|	c #9A9B9A",
"1	c #959595",
"2	c #F6F2F6",
"3	c #C4C5C4",
"4	c #A5A2A5",
"5	c #8F908F",
"6	c #EEEEEE",
"7	c #E6E6E6",
"8	c #959395",
"9	c #EEEAEE",
"0	c #C4C1C4",
"a	c #9A989A",
"...............",
"...............",
"....+@#$#@+....",
"..%&*=-;->*&%..",
"..&,;;';;;;,&..",
".)*!!~~~~~;!{+.",
".=>!]^{{{^!!>=.",
".#/]-({{_(]-/#.",
":$---(<<[(]]-$:",
"%#<-/^<[=^--<}:",
"%|1~/^___^--1|%",
"23_~~~~~~~~/_3%",
"2245//~////5422",
"6674_8=/[8_4766",
"69690a}$}a09699",
"977997997797999",
"797977999977979"};
