/* XPM */
static char * menu_active_xpm[] = {
"15 17 24 1",
" 	c None",
".	c #FFFFFF",
"+	c #E6E2E6",
"@	c #C5C6C5",
"#	c #ACAEAC",
"$	c #A4A1A4",
"%	c #F6F6F6",
"&	c #CDCACD",
"*	c #BDBEBD",
"=	c #DEDADE",
"-	c #EEEEEE",
";	c #FFFAFF",
">	c #D5D2D5",
",	c #DEDEDE",
"'	c #BDBABD",
")	c #C5C2C5",
"!	c #D5D6D5",
"~	c #F6F2F6",
"{	c #E6E6E6",
"]	c #ACAAAC",
"^	c #EEEAEE",
"/	c #9C9D9C",
"(	c #CDCECD",
"_	c #B4B6B4",
"...............",
"...............",
"....+@#$#@+....",
"..%&*=-;-=*&%..",
"..&>;;;;;;;>&..",
".,'%;;;%;%%%*,.",
".)!%%~%%%%%%!).",
".#{~~%~~~%~~{].",
";$^---~---~~-/;",
"%]+---------+];",
"%*(^------^-(*%",
"~!_^^^^^^^^^_!%",
"~~)@^^^{{^{&)~~",
"--{)_&,{,&_){--",
"^-^^>*]/]'>^^^^",
"^{{^{{^{^^^^^^^",
"^^^^^^^^{{{{^^^"};
