/* XPM */
static char * menu_pressed_xpm[] = {
"15 17 38 1",
" 	c None",
".	c #FFFFFF",
"+	c #D4D0D4",
"@	c #A1A2A1",
"#	c #818281",
"$	c #777577",
"%	c #F6F6F6",
"&	c #ACA9AC",
"*	c #898A89",
"=	c #A19EA1",
"-	c #ADADAD",
";	c #B9B5B9",
">	c #9B989B",
",	c #CCCCCC",
"'	c #898789",
")	c #B2B2B2",
"!	c #9B9B9B",
"~	c #B2B0B2",
"{	c #A7A7A7",
"]	c #817F81",
"^	c #FFFAFF",
"/	c #ADAAAD",
"(	c #717271",
"_	c #A7A4A7",
":	c #9A9B9A",
"<	c #959595",
"[	c #F6F2F6",
"}	c #C4C5C4",
"|	c #838483",
"1	c #A5A2A5",
"2	c #8F908F",
"3	c #959395",
"4	c #EEEEEE",
"5	c #E6E6E6",
"6	c #A1A1A1",
"7	c #EEEAEE",
"8	c #C4C1C4",
"9	c #9A989A",
"...............",
"...............",
"....+@#$#@+....",
"..%&*=-;-=*&%..",
"..&>;;;;;;;>&..",
".,');;;);)))*,.",
".=!))~))))))!=.",
".#{~~)~~~)~~{].",
"^$/---~---~~-(^",
"%]_---------_]^",
"%:</------/-<:%",
"[}|/////////|}%",
"[[12///{{/{31[[",
"4451|36{63|1544",
"74778:](]987777",
"755755757777777",
"777777775555777"};
