/* XPM */
static char * right_active_xpm[] = {
"5 32 5 1",
" 	c None",
".	c #ECECEC",
"+	c #D3D3D3",
"@	c #A9A9A9",
"#	c #000000",
"..+@#",
"..+@#",
"..+@#",
"..+@#",
"..+@#",
"..+@#",
"..+@#",
"..+@#",
"..+@#",
"..+@#",
"..+@#",
"..+@#",
"..+@#",
"..+@#",
"..+@#",
"..+@#",
"..+@#",
"..+@#",
"..+@#",
"..+@#",
"..+@#",
"..+@#",
"..+@#",
"..+@#",
"..+@#",
"..+@#",
"..+@#",
"..+@#",
"..+@#",
"..+@#",
"..+@#",
"..+@#"};
