/* XPM */
static char * title_1_inactive_xpm[] = {
"30 28 11 1",
" 	c None",
".	c #000000",
"+	c #E6E6E6",
"@	c #E6E1E6",
"#	c #DEDEDE",
"$	c #DEDADE",
"%	c #D6D6D6",
"&	c #D6D3D6",
"*	c #D0D0D0",
"=	c #BAB7BA",
"-	c #585758",
"..............................",
"++++++++++++++++++++++++++++++",
"++++++++++++++++++++++++++++++",
"++++++++++++++++++++++++++++++",
"++++++++++++++++++++++++++++++",
"++++++++++++++++++++++++++++++",
"++++++++++++++++++++++++++++++",
"++++++++++++++++++++++++++++++",
"++++++++++++++++++++++++++++++",
"++++++++++++++++++++++++++++++",
"++++++++++++++++++++++++++++++",
"++++++++++++++++++++++++++++++",
"@@@@@@@@@@@@@@@@@@@@@@@@@@@@@@",
"@@@@@@@@@@@@@@@@@@@@@@@@@@@@@@",
"##############################",
"$$$$$$$$$$$$$$$$$$$$$$$$$$$$$$",
"$$$$$$$$$$$$$$$$$$$$$$$$$$$$$$",
"%%%%%%%%%%%%%%%%%%%%%%%%%%%%%%",
"&&&&&&&&&&&&&&&&&&&&&&&&&&&&&&",
"&&&&&&&&&&&&&&&&&&&&&&&&&&&&&&",
"******************************",
"******************************",
"******************************",
"******************************",
"******************************",
"******************************",
"==============================",
"------------------------------"};
