/* XPM */
static char * top_left_active_xpm[] = {
"6 28 11 1",
" 	c None",
".	c #000000",
"+	c #FFFFFF",
"@	c #FFFAFF",
"#	c #F6F6F6",
"$	c #F6F2F6",
"%	c #EEEEEE",
"&	c #EEEAEE",
"*	c #E6E6E6",
"=	c #CDCACD",
"-	c #626162",
"     .",
"   ..+",
"  .+++",
" .++++",
" .++++",
".+++++",
".+++++",
".+++++",
".+++++",
".+++++",
".+++++",
".+++++",
".@@@@@",
".@@@@@",
".#####",
".$$$$$",
".$$$$$",
".%%%%%",
".&&&&&",
".&&&&&",
".*****",
".*****",
".*****",
".*****",
".*****",
".*****",
".=====",
".-----"};
