/* XPM */
static char * top_right_inactive_xpm[] = {
"6 28 11 1",
" 	c None",
".	c #000000",
"+	c #EBEBEB",
"@	c #EBE6EB",
"#	c #E3E3E3",
"$	c #E3DFE3",
"%	c #DBDBDB",
"&	c #DBD8DB",
"*	c #D4D4D4",
"=	c #BDBABD",
"-	c #5A595A",
".     ",
"+..   ",
"+++.  ",
"++++. ",
"++++. ",
"+++++.",
"+++++.",
"+++++.",
"+++++.",
"+++++.",
"+++++.",
"+++++.",
"@@@@@.",
"@@@@@.",
"#####.",
"$$$$$.",
"$$$$$.",
"%%%%%.",
"&&&&&.",
"&&&&&.",
"*****.",
"*****.",
"*****.",
"*****.",
"*****.",
"*****.",
"=====.",
"-----."};
