/* XPM */
static char * bottom_left_active_xpm[] = {
"16 16 8 1",
" 	c None",
".	c #000000",
"+	c #BBD9FF",
"@	c #9EBEE7",
"#	c #93C0FA",
"$	c #355782",
"%	c #3676C9",
"&	c #365D90",
".+@@.           ",
".+@@.           ",
".+@@.           ",
".+@@.           ",
".+@@.           ",
".+@@.           ",
".+@@.           ",
".+@@.           ",
".+@@.           ",
".+@@.           ",
".+@@.           ",
" .#@$...........",
" .#@@@@@@@@@@@@@",
"  .%%@@@@@@@@@@@",
"   ..&&&&&&&&&&&",
"     ..........."};
