/* XPM */
static char * bottom_left_inactive_xpm[] = {
"16 16 6 1",
" 	c None",
".	c #000000",
"+	c #FFFFFF s inactive_hilight_2",
"@	c #F8F8F8 s inactive_color_2",
"#	c #DFDFDF s inactive_hilight_2",
"$	c #ADADAD s inactive_shadow_2",
".+@@@           ",
".+@@@           ",
".+@@@           ",
".+@@@           ",
".+@@@           ",
".+@@@           ",
".+@@@           ",
".+@@@           ",
".+@@@           ",
".+@@@           ",
".+@@@           ",
" .+@@@@@@@@@@@@@",
" .+@@@@@@@@@@@@@",
"  .##@@@@@@@@@@@",
"   ..$$$$$$$$$$$",
"     ..........."};
