/* XPM */
static char * bottom_right_active_xpm[] = {
"16 16 5 1",
" 	c None",
".	c #000000",
"+	c #9EBEE7",
"@	c #365D90",
"#	c #355782",
"           .++@.",
"           .++@.",
"           .++@.",
"           .++@.",
"           .++@.",
"           .++@.",
"           .++@.",
"           .++@.",
"           .++@.",
"           .++@.",
"           .++@.",
"...........#+@. ",
"+++++++++++++@. ",
"+++++++++++@@.  ",
"@@@@@@@@@@@..   ",
"...........     "};
