/* XPM */
static char * bottom_active_xpm[] = {
"46 5 4 1",
" 	c None",
".	c #000000",
"+	c #9EBEE7",
"@	c #365D90",
"..............................................",
"++++++++++++++++++++++++++++++++++++++++++++++",
"++++++++++++++++++++++++++++++++++++++++++++++",
"@@@@@@@@@@@@@@@@@@@@@@@@@@@@@@@@@@@@@@@@@@@@@@",
".............................................."};
