/* XPM */
static char * hide_active_xpm[] = {
"17 17 36 1",
" 	c None",
".	c #6395D3",
"+	c #7BA5DA",
"@	c #83AEE4",
"#	c #456898",
"$	c #7AA3D7",
"%	c #3A5B88",
"&	c #81ACE1",
"*	c #436694",
"=	c #79A1D4",
"-	c #395985",
";	c #80A9DD",
">	c #416390",
",	c #789FD1",
"'	c #375681",
")	c #7FA7DA",
"!	c #40608C",
"~	c #769DCD",
"{	c #36547C",
"]	c #7EA5D7",
"^	c #3F5D88",
"/	c #759BCA",
"(	c #345179",
"_	c #7CA2D3",
":	c #3D5A84",
"<	c #7399C7",
"[	c #324F75",
"}	c #FFFFFF",
"|	c #7BA1D0",
"1	c #3B5980",
"2	c #7396C4",
"3	c #314C71",
"4	c #799ECC",
"5	c #39567B",
"6	c #567FB2",
"7	c #7195C1",
".+++++++++++++++.",
"@###############@",
"$%%%%%%%%%%%%%%%$",
"&***************&",
"=---------------=",
";>>>>>>>>>>>>>>>;",
",''''''''''''''',",
")!!!!!!!!!!!!!!!)",
"~{{{{{{{{{{{{{{{~",
"]^^^^^^^^^^^^^^^]",
"/(((((((((((((((/",
"_:::::::::::::::_",
"<[[}}}}}}}}}}}[[<",
"|11}}}}}}}}}}}11|",
"23333333333333332",
"45555555555555554",
"67777777777777776"};
