/* XPM */
static char * left_active_xpm[] = {
"5 55 4 1",
" 	c None",
".	c #000000",
"+	c #BBD9FF",
"@	c #9EBEE7",
".+@@.",
".+@@.",
".+@@.",
".+@@.",
".+@@.",
".+@@.",
".+@@.",
".+@@.",
".+@@.",
".+@@.",
".+@@.",
".+@@.",
".+@@.",
".+@@.",
".+@@.",
".+@@.",
".+@@.",
".+@@.",
".+@@.",
".+@@.",
".+@@.",
".+@@.",
".+@@.",
".+@@.",
".+@@.",
".+@@.",
".+@@.",
".+@@.",
".+@@.",
".+@@.",
".+@@.",
".+@@.",
".+@@.",
".+@@.",
".+@@.",
".+@@.",
".+@@.",
".+@@.",
".+@@.",
".+@@.",
".+@@.",
".+@@.",
".+@@.",
".+@@.",
".+@@.",
".+@@.",
".+@@.",
".+@@.",
".+@@.",
".+@@.",
".+@@.",
".+@@.",
".+@@.",
".+@@.",
".+@@."};
