/* XPM */
static char * maximize_inactive_xpm[] = {
"17 17 5 1",
" 	c None",
".	c #E0E0E0 s inactive_color_2",
"+	c #D0D0D0 s inactive_shadow_2",
"@	c #F8F8F8 s inactive_color_2",
"#	c #BDBDBD s inactive_shadow_2",
".+++++++++++++++.",
"+@@@@@@@@@@@@@@@+",
"+@@@@@@@@@@@@@@@+",
"+@@###########@@+",
"+@@###########@@+",
"+@@#@@@@@@@@@#@@+",
"+@@#@@@@@@@@@#@@+",
"+@@#@@@@@@@@@#@@+",
"+@@#@@@@@@@@@#@@+",
"+@@#@@@@@@@@@#@@+",
"+@@#@@@@@@@@@#@@+",
"+@@#@@@@@@@@@#@@+",
"+@@#@@@@@@@@@#@@+",
"+@@###########@@+",
"+@@@@@@@@@@@@@@@+",
"+@@@@@@@@@@@@@@@+",
".+++++++++++++++."};
