/* XPM */
static char * maximize_toggle_active_xpm[] = {
"17 17 37 1",
" 	c None",
".	c #6395D3",
"+	c #7BA5DA",
"@	c #83AEE4",
"#	c #456898",
"$	c #7AA3D7",
"%	c #3A5B88",
"&	c #81ACE1",
"*	c #436694",
"=	c #79A1D4",
"-	c #395985",
";	c #80A9DD",
">	c #416390",
",	c #FFFFFF",
"'	c #789FD1",
")	c #375681",
"!	c #7FA7DA",
"~	c #40608C",
"{	c #769DCD",
"]	c #36547C",
"^	c #7EA5D7",
"/	c #3F5D88",
"(	c #759BCA",
"_	c #345179",
":	c #7CA2D3",
"<	c #3D5A84",
"[	c #7399C7",
"}	c #324F75",
"|	c #335077",
"2	c #7BA1D0",
"3	c #3B5980",
"8	c #7396C4",
"9	c #314C71",
"0	c #799ECC",
"a	c #39567B",
"b	c #567FB2",
"c	c #7195C1",
".+++++++++++++++.",
"@###############@",
"$%%%%%%%%%%%%%%%$",
"&***************&",
"=---,,,,,,,,,---=",
";>>>,,,,,,,,,>>>;",
"'))),))))))),)))'",
"!~~~,~~~~~~~,~~~!",
"{]]],]]]]]]],]]]{",
"^///,///////,///^",
"(___,_______,___(",
":<<<,<<<<<<<,<<<:",
"[}}},,,,,,,,,}}}[",
"23333333333333332",
"89999999999999998",
"0aaaaaaaaaaaaaaa0",
"bcccccccccccccccb"};
