/* XPM */
static char * right_inactive_xpm[] = {
"5 46 4 1",
" 	c None",
".	c #F8F8F8 s inactive_color_2",
"+	c #ADADAD s inactive_shadow_2",
"@	c #000000",
"...+@",
"...+@",
"...+@",
"...+@",
"...+@",
"...+@",
"...+@",
"...+@",
"...+@",
"...+@",
"...+@",
"...+@",
"...+@",
"...+@",
"...+@",
"...+@",
"...+@",
"...+@",
"...+@",
"...+@",
"...+@",
"...+@",
"...+@",
"...+@",
"...+@",
"...+@",
"...+@",
"...+@",
"...+@",
"...+@",
"...+@",
"...+@",
"...+@",
"...+@",
"...+@",
"...+@",
"...+@",
"...+@",
"...+@",
"...+@",
"...+@",
"...+@",
"...+@",
"...+@",
"...+@",
"...+@"};
