/* XPM */
static char * right_active_xpm[] = {
"5 55 4 1",
" 	c None",
".	c #000000",
"+	c #9EBEE7",
"@	c #365D90",
".++@.",
".++@.",
".++@.",
".++@.",
".++@.",
".++@.",
".++@.",
".++@.",
".++@.",
".++@.",
".++@.",
".++@.",
".++@.",
".++@.",
".++@.",
".++@.",
".++@.",
".++@.",
".++@.",
".++@.",
".++@.",
".++@.",
".++@.",
".++@.",
".++@.",
".++@.",
".++@.",
".++@.",
".++@.",
".++@.",
".++@.",
".++@.",
".++@.",
".++@.",
".++@.",
".++@.",
".++@.",
".++@.",
".++@.",
".++@.",
".++@.",
".++@.",
".++@.",
".++@.",
".++@.",
".++@.",
".++@.",
".++@.",
".++@.",
".++@.",
".++@.",
".++@.",
".++@.",
".++@.",
".++@."};
