/* XPM */
static char * title_2_inactive_xpm[] = {
"3 23 4 1",
" 	c None",
".	c #000000",
"+	c #FFFFFF s inactive_hilight_2",
"@	c #F8F8F8 s inactive_color_2",
"...",
"+++",
"@@@",
"@@@",
"@@@",
"@@@",
"@@@",
"@@@",
"@@@",
"@@@",
"@@@",
"@@@",
"@@@",
"@@@",
"@@@",
"@@@",
"@@@",
"@@@",
"@@@",
"@@@",
"@@@",
"@@@",
"@@@"};
