/* XPM */
static char * title_2_active_xpm[] = {
"4 23 23 1",
" 	c None",
".	c #000000",
"+	c #A9C4E6",
"@	c #5E98E3",
"#	c #4C82C8",
"$	c #5B93DC",
"%	c #497DC2",
"&	c #588FD5",
"*	c #477ABC",
"=	c #558ACE",
"-	c #4575B5",
";	c #5386C8",
">	c #4271AE",
",	c #5181C1",
"'	c #3F6DA8",
")	c #4E7CBA",
"!	c #3C69A1",
"~	c #4B79B4",
"{	c #3B649B",
"]	c #4874AC",
"^	c #386195",
"/	c #456FA5",
"(	c #355C8F",
"....",
"++++",
"@@@@",
"####",
"$$$$",
"%%%%",
"&&&&",
"****",
"====",
"----",
";;;;",
">>>>",
",,,,",
"''''",
"))))",
"!!!!",
"~~~~",
"{{{{",
"]]]]",
"^^^^",
"////",
"((((",
"...."};
