/* XPM */
static char * top_right_inactive_xpm[] = {
"5 55 6 1",
" 	c None",
".	c #000000",
"+	c #F8F8F8 s inactive_color_2",
"@	c #DFDFDF s inactive_hilight_2",
"#	c #C6C6C6 s inactive_shadow_2",
"$	c #ADADAD s inactive_shadow_2",
"     ",
"..   ",
"+@.  ",
"++#. ",
"++#. ",
"+++$.",
"+++$.",
"+++$.",
"+++$.",
"+++$.",
"+++$.",
"+++$.",
"+++$.",
"+++$.",
"+++$.",
"+++$.",
"+++$.",
"+++$.",
"+++$.",
"+++$.",
"+++$.",
"+++$.",
"+++$.",
"+++$.",
"+++$.",
"+++$.",
"+++$.",
"+++$.",
"+++$.",
"+++$.",
"+++$.",
"+++$.",
"+++$.",
"+++$.",
"+++$.",
"+++$.",
"+++$.",
"+++$.",
"+++$.",
"+++$.",
"+++$.",
"+++$.",
"+++$.",
"+++$.",
"+++$.",
"+++$.",
"+++$.",
"+++$.",
"+++$.",
"+++$.",
"+++$.",
"+++$.",
"+++$.",
"+++$.",
"+++$."};
