/* XPM */
static char * top_left_inactive_xpm[] = {
"5 55 4 1",
" 	c None",
".	c #000000",
"+	c #FFFFFF s inactive_hilight_2",
"@	c #F8F8F8 s inactive_color_2",
"     ",
"   ..",
"  .++",
" .+@@",
" .+@@",
".+@@@",
".+@@@",
".+@@@",
".+@@@",
".+@@@",
".+@@@",
".+@@@",
".+@@@",
".+@@@",
".+@@@",
".+@@@",
".+@@@",
".+@@@",
".+@@@",
".+@@@",
".+@@@",
".+@@@",
".+@@@",
".+@@@",
".+@@@",
".+@@@",
".+@@@",
".+@@@",
".+@@@",
".+@@@",
".+@@@",
".+@@@",
".+@@@",
".+@@@",
".+@@@",
".+@@@",
".+@@@",
".+@@@",
".+@@@",
".+@@@",
".+@@@",
".+@@@",
".+@@@",
".+@@@",
".+@@@",
".+@@@",
".+@@@",
".+@@@",
".+@@@",
".+@@@",
".+@@@",
".+@@@",
".+@@@",
".+@@@",
".+@@@"};
