/* XPM */
static char * top_right_active_xpm[] = {
"5 55 60 1",
" 	c None",
".	c #000000",
"+	c #5E98E3",
"@	c #3676C9",
"#	c #4C82C8",
"$	c #376AAB",
"%	c #5B93DC",
"&	c #497DC2",
"*	c #315482",
"=	c #588FD5",
"-	c #3F6595",
";	c #477ABC",
">	c #558ACE",
",	c #4575B5",
"'	c #5386C8",
")	c #4271AE",
"!	c #5181C1",
"~	c #3F6DA8",
"{	c #4E7CBA",
"]	c #3C69A1",
"^	c #4B79B4",
"/	c #3B649B",
"(	c #4874AC",
"_	c #386195",
":	c #456FA5",
"<	c #355C8F",
"[	c #2D3D52",
"}	c #436B9F",
"|	c #365D90",
"1	c #396092",
"2	c #3C6395",
"3	c #3F6698",
"4	c #43699A",
"5	c #466C9D",
"6	c #496FA0",
"7	c #4C72A3",
"8	c #5075A5",
"9	c #5378A8",
"0	c #567BAB",
"a	c #597EAD",
"b	c #5D81B0",
"c	c #6084B3",
"d	c #6387B6",
"e	c #668AB8",
"f	c #6A8DBB",
"g	c #6D90BE",
"h	c #7093C0",
"i	c #7396C3",
"j	c #7799C6",
"k	c #7A9CC9",
"l	c #7D9FCB",
"m	c #80A2CE",
"n	c #84A5D1",
"o	c #87A8D3",
"p	c #8AABD6",
"q	c #8DAED9",
"r	c #91B1DC",
"s	c #94B4DE",
"t	c #97B7E1",
"u	c #9ABAE4",
"     ",
"..   ",
"+@.  ",
"##$. ",
"%%$. ",
"&&&*.",
"===-.",
";;;*.",
">>>-.",
",,,*.",
"'''-.",
")))*.",
"!!!-.",
"~~~*.",
"{{{-.",
"]]]*.",
"^^^-.",
"///*.",
"(((-.",
"___*.",
":::-.",
"<<<*.",
"[}}-.",
".|||.",
".11|.",
".22|.",
".33|.",
".44|.",
".55|.",
".66|.",
".77|.",
".88|.",
".99|.",
".00|.",
".aa|.",
".bb|.",
".cc|.",
".dd|.",
".ee|.",
".ff|.",
".gg|.",
".hh|.",
".ii|.",
".jj|.",
".kk|.",
".ll|.",
".mm|.",
".nn|.",
".oo|.",
".pp|.",
".qq|.",
".rr|.",
".ss|.",
".tt|.",
".uu|."};
