/* XPM */
static char * top_left_active_xpm[] = {
"5 55 59 1",
" 	c None",
".	c #000000",
"+	c #B8D7FF",
"@	c #4C82C8",
"#	c #5B93DC",
"$	c #A9C4E6",
"%	c #497DC2",
"&	c #BEDBFF",
"*	c #588FD5",
"=	c #477ABC",
"-	c #558ACE",
";	c #4575B5",
">	c #5386C8",
",	c #4271AE",
"'	c #5181C1",
")	c #3F6DA8",
"!	c #4E7CBA",
"~	c #3C69A1",
"{	c #4B79B4",
"]	c #3B649B",
"^	c #4874AC",
"/	c #386195",
"(	c #456FA5",
"_	c #355C8F",
":	c #436B9F",
"<	c #2D3D52",
"[	c #BBD9FF",
"}	c #365D90",
"|	c #396092",
"1	c #3C6395",
"2	c #3F6698",
"3	c #43699A",
"4	c #466C9D",
"5	c #496FA0",
"6	c #4C72A3",
"7	c #5075A5",
"8	c #5378A8",
"9	c #567BAB",
"0	c #597EAD",
"a	c #5D81B0",
"b	c #6084B3",
"c	c #6387B6",
"d	c #668AB8",
"e	c #6A8DBB",
"f	c #6D90BE",
"g	c #7093C0",
"h	c #7396C3",
"i	c #7799C6",
"j	c #7A9CC9",
"k	c #7D9FCB",
"l	c #80A2CE",
"m	c #84A5D1",
"n	c #87A8D3",
"o	c #8AABD6",
"p	c #8DAED9",
"q	c #91B1DC",
"r	c #94B4DE",
"s	c #97B7E1",
"t	c #9ABAE4",
"     ",
"   ..",
"  .++",
" .+@@",
" .+##",
".$%%%",
".&***",
".$===",
".&---",
".$;;;",
".&>>>",
".$,,,",
".&'''",
".$)))",
".&!!!",
".$~~~",
".&{{{",
".$]]]",
".&^^^",
".$///",
".&(((",
".$___",
".&::<",
".[}}.",
".[||.",
".[11.",
".[22.",
".[33.",
".[44.",
".[55.",
".[66.",
".[77.",
".[88.",
".[99.",
".[00.",
".[aa.",
".[bb.",
".[cc.",
".[dd.",
".[ee.",
".[ff.",
".[gg.",
".[hh.",
".[ii.",
".[jj.",
".[kk.",
".[ll.",
".[mm.",
".[nn.",
".[oo.",
".[pp.",
".[qq.",
".[rr.",
".[ss.",
".[tt."};
